<svg xmlns="http://www.w3.org/2000/svg" xmlns:xlink="http://www.w3.org/1999/xlink" width="862px" height="240px" viewBox="0 0 862 240" version="1.1">
    <!-- Generator: Sketch 50.2 (55047) - http://www.bohemiancoding.com/sketch -->
    <title>tutorial-react</title>
    <desc>Created with Sketch.</desc>
    <defs/>
    <g id="Admin" stroke="none" stroke-width="1" fill="none" fill-rule="evenodd">
        <g id="Icons" transform="translate(-56.000000, -103.000000)" fill="#5B72D7" fill-rule="nonzero">
            <g id="tutorial-react" transform="translate(56.000000, 103.000000)" style="&#10;    fill: #61DAFB;&#10;">
                <g id="tutorial-alexa">
                    <g id="Layer_2_1_">
                        <g id="Group">
                            <g id="Group-2">
                                <path d="M269.136883,119.688312 C269.136883,101.885702 246.841195,85.0143065 212.658127,74.55185 C220.546528,39.713513 217.040572,11.9962198 201.592454,3.12230378 C198.031718,1.04076792 193.868396,0.0547772593 189.321609,0.0547772593 L189.321609,12.2701061 C191.841515,12.2701061 193.868396,12.7631014 195.566593,13.6943149 C203.016749,17.966941 206.248801,34.2357871 203.728896,55.1607002 C203.12631,60.3097625 202.14026,65.7327112 200.935087,71.2652144 C190.198098,68.635906 178.475059,66.6091474 166.149433,65.2944932 C158.754058,55.1607002 151.084779,45.9581206 143.360721,37.9058634 C161.219182,21.3083539 177.982034,12.2153288 189.37639,12.2153288 L189.37639,0 C174.311736,0 154.590736,10.7363428 134.650612,29.360611 C114.710489,10.8458973 94.9894875,0.219109037 79.9248344,0.219109037 L79.9248344,12.4344379 C91.2644096,12.4344379 108.082041,21.4726856 125.940504,37.9606407 C118.271225,46.0128979 110.601947,55.1607002 103.316132,65.2944932 C90.9357269,66.6091474 79.2126872,68.635906 68.4756978,71.3199917 C67.2157449,65.8422657 66.2844754,60.5288716 65.6271087,55.4345865 C63.0524225,34.5096734 66.2296948,18.2408274 73.6250702,13.9134238 C75.268487,12.9274332 77.4049288,12.4892151 79.9248344,12.4892151 L79.9248344,0.273886297 C75.3232675,0.273886297 71.1599451,1.25987696 67.5444283,3.34141282 C52.1510914,12.2153288 48.6999162,39.8778448 56.6430972,74.6066272 C22.56959,85.1238611 0.383463907,101.940479 0.383463907,119.688312 C0.383463907,137.490921 22.6791511,154.362317 56.8622194,164.824773 C48.973819,199.663111 52.4797747,227.380404 67.9278922,236.25432 C71.4886284,238.335855 75.6519509,239.321846 80.2535178,239.321846 C95.3181712,239.321846 115.039173,228.585503 134.979295,209.961235 C154.919418,228.475948 174.64042,239.102738 189.705073,239.102738 C194.30664,239.102738 198.469963,238.116746 202.085479,236.03521 C217.478816,227.161295 220.929991,199.498779 212.98681,164.769996 C246.950756,154.30754 269.136883,137.436144 269.136883,119.688312 Z M197.812595,83.1518797 C195.785715,90.2181458 193.265809,97.5035219 190.41722,104.788897 C188.171217,100.406716 185.815654,96.0245352 183.240967,91.6423551 C180.721061,87.2601742 178.036814,82.9875479 175.352567,78.8244762 C183.131406,79.9747987 190.636342,81.3990074 197.812595,83.1518797 Z M172.7231,141.489661 C168.450216,148.884591 164.067772,155.89608 159.520985,162.414574 C151.358682,163.126678 143.086818,163.51012 134.760173,163.51012 C126.488309,163.51012 118.216444,163.126678 110.108922,162.469352 C105.562136,155.950858 101.124911,148.994146 96.8520265,141.653993 C92.6887041,134.478172 88.9088461,127.192796 85.4576708,119.852644 C88.8540652,112.51249 92.6887041,105.172338 96.7972465,97.9965172 C101.07013,90.6015873 105.452574,83.5900978 109.999361,77.0716039 C118.161664,76.3594996 126.433528,75.9760587 134.760173,75.9760587 C143.032037,75.9760587 151.303902,76.3594996 159.411424,77.0168266 C163.95821,83.5353205 168.395436,90.4920326 172.66832,97.8321851 C176.831642,105.008007 180.6115,112.293382 184.062675,119.633534 C180.6115,126.973687 176.831642,134.31384 172.7231,141.489661 Z M190.41722,134.368617 C193.37537,141.70877 195.895276,149.048923 197.976937,156.169966 C190.800684,157.922839 183.240967,159.401824 175.407347,160.552147 C178.091595,156.334298 180.775842,152.006894 183.295747,147.569937 C185.815654,143.187756 188.171217,138.750798 190.41722,134.368617 Z M134.869734,192.815953 C129.775143,187.557336 124.68055,181.696169 119.640739,175.28723 C124.570989,175.506339 129.610801,175.670671 134.705392,175.670671 C139.854765,175.670671 144.949357,175.561116 149.934388,175.28723 C145.004138,181.696169 139.909546,187.557336 134.869734,192.815953 Z M94.1129994,160.552147 C86.3341597,159.401824 78.8292232,157.977616 71.6529701,156.224743 C73.6798508,149.158478 76.1997565,141.873101 79.0483455,134.587726 C81.2943483,138.969907 83.6499124,143.352088 86.2245986,147.734268 C88.7992852,152.116449 91.4287514,156.389075 94.1129994,160.552147 Z M134.595831,46.5606705 C139.690424,51.8192874 144.785015,57.6804541 149.824827,64.0893934 C144.894576,63.8702844 139.854765,63.7059526 134.760173,63.7059526 C129.610801,63.7059526 124.516208,63.8155071 119.531178,64.0893934 C124.461428,57.6804541 129.55602,51.8192874 134.595831,46.5606705 Z M94.0582185,78.8244762 C91.3739714,83.0423252 88.6897234,87.3697287 86.169818,91.8066863 C83.6499124,96.1888673 81.2943483,100.571048 79.0483455,104.953229 C76.0901953,97.6130757 73.5702896,90.2729232 71.4886284,83.1518797 C78.6648816,81.4537847 86.2245986,79.9747987 94.0582185,78.8244762 Z M44.4818132,147.405605 C25.0894957,139.134238 12.5447478,128.288342 12.5447478,119.688312 C12.5447478,111.088282 25.0894957,100.187608 44.4818132,91.9710184 C49.1929413,89.9442599 54.3423137,88.1366103 59.6560279,86.4385153 C62.7785197,97.1748578 66.8870615,108.349419 71.9816535,119.797866 C66.9418422,131.191536 62.8880808,142.311319 59.8203695,152.992885 C54.3970943,151.294791 49.2477218,149.432363 44.4818132,147.405605 Z M73.9537535,225.682309 C66.5035976,221.409683 63.2715448,205.140836 65.7914504,184.215923 C66.3940366,179.06686 67.3800866,173.643913 68.5852589,168.111409 C79.3222483,170.740717 91.0452878,172.767476 103.370913,174.08213 C110.766288,184.215923 118.435567,193.418502 126.159626,201.47076 C108.301164,218.068269 91.5383123,227.161295 80.1439567,227.161295 C77.6788316,227.106517 75.5971703,226.613522 73.9537535,225.682309 Z M203.893238,183.942037 C206.467924,204.86695 203.290651,221.135796 195.895276,225.463199 C194.251859,226.44919 192.115418,226.887408 189.595512,226.887408 C178.255937,226.887408 161.438305,217.84916 143.579843,201.361205 C151.249121,193.308949 158.918399,184.161146 166.204214,174.027353 C178.584619,172.712698 190.30766,170.68594 201.044649,168.001854 C202.304602,173.534358 203.290651,178.847752 203.893238,183.942037 Z M224.983753,147.405605 C220.272625,149.432363 215.123252,151.240013 209.809538,152.938108 C206.687046,142.201766 202.578504,131.027205 197.483912,119.578757 C202.523723,108.185088 206.577485,97.065304 209.645197,86.383738 C215.068472,88.081833 220.217844,89.9442599 225.038533,91.9710184 C244.430851,100.242385 256.975599,111.088282 256.975599,119.688312 C256.920818,128.288342 244.37607,139.189016 224.983753,147.405605 Z" id="Shape"/>
                                <ellipse id="Oval" cx="134.705392" cy="119.688312" rx="25.0347151" ry="25.0332075"/>
                            </g>
                        </g>
                    </g>
                </g>
                <path d="M334.429091,49.4605299 L386.554681,49.4605299 C393.617803,49.4605299 400.468931,50.202147 407.108267,51.6854026 C413.747603,53.1686582 419.645222,55.6053996 424.801302,58.9956987 C429.957382,62.3859978 434.089247,66.8356989 437.197022,72.3449351 C440.304796,77.8541712 441.85866,84.564038 441.85866,92.4747359 C441.85866,103.351946 438.786247,112.216033 432.64133,119.067262 C426.496412,125.918492 418.126737,130.544769 407.532052,132.94623 L447.579761,199.480519 L415.37208,199.480519 L380.621687,135.912727 L361.127564,135.912727 L361.127564,199.480519 L334.429091,199.480519 L334.429091,49.4605299 Z M382.952506,114.087785 C386.766593,114.087785 390.580621,113.805265 394.394708,113.240215 C398.208795,112.675164 401.634358,111.615712 404.671501,110.061825 C407.708645,108.507938 410.216015,106.283088 412.19369,103.387207 C414.171365,100.491326 415.160187,96.7832421 415.160187,92.2628433 C415.160187,88.1662315 414.241995,84.8112981 412.405583,82.1979429 C410.56917,79.5845876 408.238375,77.5009967 405.413126,75.94711 C402.587876,74.3932232 399.374203,73.3337706 395.77201,72.7687203 C392.169818,72.2036701 388.673624,71.9211498 385.283325,71.9211498 L361.127564,71.9211498 L361.127564,114.087785 L382.952506,114.087785 Z M538.057919,138.455439 C538.057919,135.206402 537.598823,132.098675 536.680616,129.132163 C535.76241,126.165651 534.314492,123.552334 532.336817,121.292135 C530.359143,119.031936 527.851772,117.230866 524.814629,115.888873 C521.777485,114.54688 518.210662,113.875893 514.11405,113.875893 C506.485877,113.875893 500.023216,116.171373 494.725874,120.762403 C489.428531,125.353433 486.497379,131.251053 485.932329,138.455439 L538.057919,138.455439 Z M563.485035,149.897642 L563.485035,153.287924 C563.485035,154.418024 563.414405,155.548106 563.273143,156.678206 L485.932329,156.678206 C486.214854,160.35103 487.168362,163.705963 488.79288,166.743106 C490.417398,169.78025 492.571619,172.393566 495.255605,174.583134 C497.939592,176.772702 500.97669,178.503142 504.366989,179.774504 C507.757288,181.045866 511.288797,181.681538 514.961621,181.681538 C521.318432,181.681538 526.686325,180.51614 531.065461,178.185309 C535.444598,175.854479 539.046736,172.640806 541.871986,168.544194 L558.823397,182.105323 C548.793762,195.666519 534.243947,202.447016 515.173513,202.447016 C507.262816,202.447016 499.987907,201.210988 493.348571,198.738895 C486.709236,196.266802 480.952876,192.770608 476.079321,188.25021 C471.205767,183.729811 467.391737,178.185342 464.637119,171.616637 C461.8825,165.047933 460.505212,157.596449 460.505212,149.261964 C460.505212,141.06874 461.8825,133.617257 464.637119,126.90729 C467.391737,120.197323 471.170451,114.476278 475.973375,109.743986 C480.776298,105.011694 486.462028,101.338924 493.030732,98.7255688 C499.599437,96.1122136 506.69777,94.805555 514.325943,94.805555 C521.389067,94.805555 527.922357,95.970953 533.926012,98.3017835 C539.929667,100.632614 545.120985,104.093493 549.500121,108.684523 C553.879258,113.275553 557.304821,118.996597 559.776914,125.847827 C562.249007,132.699056 563.485035,140.715582 563.485035,149.897642 Z M651.208589,186.555068 L650.572911,186.555068 C648.03019,191.075467 643.933641,194.783551 638.283138,197.679432 C632.632635,200.575313 626.205293,202.023231 619.000907,202.023231 C614.904296,202.023231 610.631175,201.493505 606.181403,200.434036 C601.731635,199.374568 597.635084,197.608813 593.891629,195.13672 C590.148174,192.664627 587.040446,189.415639 584.568353,185.389659 C582.09626,181.363678 580.860232,176.384251 580.860232,170.451228 C580.860232,162.823055 583.014452,156.748859 587.322958,152.228461 C591.631463,147.708062 597.175932,144.247183 603.95653,141.845721 C610.73713,139.444259 618.259239,137.855081 626.523096,137.078137 C634.786953,136.301193 642.874106,135.912727 650.784803,135.912727 L650.784803,133.370016 C650.784803,127.013204 648.489323,122.316298 643.898293,119.279155 C639.307262,116.242012 633.833428,114.723463 627.476613,114.723463 C622.108637,114.723463 616.952633,115.853546 612.00845,118.113745 C607.064263,120.373945 602.967714,123.128522 599.718677,126.377558 L586.581333,110.909396 C592.373094,105.541422 599.047646,101.515502 606.605188,98.8315152 C614.162733,96.1475287 621.826101,94.805555 629.595539,94.805555 C638.636333,94.805555 646.087817,96.0768984 651.950213,98.6196225 C657.812609,101.162347 662.438881,104.481965 665.829181,108.578577 C669.219481,112.675188 671.585595,117.266149 672.927584,122.351598 C674.269574,127.437047 674.940565,132.522419 674.940565,137.607868 L674.940565,199.480519 L651.208589,199.480519 L651.208589,186.555068 Z M650.784803,153.076031 L645.063702,153.076031 C640.96709,153.076031 636.658648,153.252607 632.138251,153.605763 C627.617854,153.958919 623.450671,154.735851 619.636585,155.936582 C615.8225,157.137313 612.644137,158.832437 610.101416,161.022005 C607.558692,163.211573 606.287349,166.213355 606.287349,170.027442 C606.287349,172.428904 606.817075,174.441865 607.876544,176.066383 C608.936016,177.690901 610.3133,178.997559 612.00845,179.986397 C613.7036,180.975234 615.610616,181.681536 617.729552,182.105323 C619.848487,182.52911 621.967395,182.741001 624.086331,182.741001 C632.844607,182.741001 639.483842,180.410205 644.004239,175.748544 C648.524636,171.086883 650.784803,164.730166 650.784803,156.678206 L650.784803,153.076031 Z M774.10632,125.953773 C772.128644,123.128523 769.162182,120.762413 765.206829,118.85537 C761.251477,116.948326 757.225561,115.994819 753.128949,115.994819 C748.467284,115.994819 744.370735,116.948326 740.839176,118.85537 C737.307617,120.762413 734.376459,123.269784 732.045631,126.377558 C729.714803,129.485333 727.984359,132.981526 726.854261,136.866244 C725.724164,140.750962 725.15912,144.670936 725.15912,148.626286 C725.15912,152.581635 725.759477,156.501609 726.960208,160.386327 C728.160939,164.271045 729.962008,167.767239 732.36347,170.875013 C734.764932,173.982787 737.766715,176.490158 741.368907,178.397202 C744.9711,180.304245 749.173596,181.257752 753.976519,181.257752 C757.931872,181.257752 761.887154,180.48082 765.842507,178.926933 C769.79786,177.373047 772.976214,175.112881 775.377676,172.146369 L791.269624,188.25021 C787.031754,192.770608 781.628545,196.266802 775.059837,198.738895 C768.49113,201.210988 761.392797,202.447016 753.764627,202.447016 C746.277715,202.447016 739.179383,201.246303 732.469416,198.844842 C725.75945,196.44338 719.897143,192.911871 714.882327,188.25021 C709.867511,183.588548 705.91222,177.938134 703.016339,171.298798 C700.120459,164.659462 698.67254,157.102034 698.67254,148.626286 C698.67254,140.433062 700.120459,133.016894 703.016339,126.377558 C705.91222,119.738223 709.832199,114.087808 714.776381,109.426147 C719.720563,104.764486 725.476924,101.162347 732.045631,98.6196225 C738.614338,96.0768984 745.642037,94.805555 753.128949,94.805555 C760.615861,94.805555 767.855452,96.2181581 774.847945,99.0434078 C781.840437,101.868657 787.384905,105.753316 791.481517,110.697503 L774.10632,125.953773 Z M793.388551,118.113745 L793.388551,97.7720519 L811.187532,97.7720519 L811.187532,68.3189749 L836.190864,68.3189749 L836.190864,97.7720519 L861.617981,97.7720519 L861.617981,118.113745 L836.190864,118.113745 L836.190864,165.365804 C836.190864,169.886203 837.003113,173.629602 838.627629,176.596114 C840.252146,179.562626 843.889598,181.04586 849.5401,181.04586 C851.23525,181.04586 853.071633,180.869284 855.049309,180.516128 C857.026986,180.162972 858.792734,179.633246 860.346625,178.926933 L861.194196,198.844842 C858.933993,199.692417 856.250049,200.363403 853.142275,200.857822 C850.034502,201.35224 847.068031,201.599446 844.242784,201.599446 C837.462184,201.599446 831.953029,200.645939 827.715158,198.738895 C823.477288,196.831852 820.122354,194.218535 817.650258,190.898868 C815.178162,187.5792 813.483039,183.76517 812.564835,179.456665 C811.64663,175.14816 811.187532,170.521884 811.187532,165.577697 L811.187532,118.113745 L793.388551,118.113745 Z" id="React"/>
            </g>
        </g>
    </g>
</svg>
